{"glyphs":{"0":{"ha":694,"x_min":0,"x_max":0,"o":"m 521 694 l 0 694 l 0 0 l 521 0 l 521 694 z m 347 521 l 347 174 l 174 174 l 174 521 l 347 521 z "},"1":{"ha":521,"x_min":0,"x_max":0,"o":"m 521 174 l 347 174 l 347 694 l 174 694 l 174 521 l 0 521 l 0 347 l 174 347 l 174 174 l 0 174 l 0 0 l 521 0 l 521 174 z "},"2":{"ha":694,"x_min":0,"x_max":0,"o":"m 347 694 l 174 694 l 174 521 l 347 521 l 347 694 z m 521 347 l 521 521 l 347 521 l 347 347 l 521 347 z m 347 347 l 174 347 l 174 174 l 0 174 l 0 0 l 521 0 l 521 174 l 347 174 l 347 347 z "},"3":{"ha":347,"x_min":0,"x_max":0,"o":"m 0 694 l 0 521 l 174 521 l 174 694 l 0 694 z m 174 521 l 174 347 l 347 347 l 347 521 l 174 521 z m 0 347 l 0 174 l 174 174 l 174 347 l 0 347 z m 174 174 l 174 0 l 347 0 l 347 174 l 174 174 z m 0 0 l 0 -174 l 174 -174 l 174 0 l 0 0 z "},"4":{"ha":694,"x_min":0,"x_max":0,"o":"m 694 347 l 521 347 l 521 694 l 347 694 l 347 521 l 174 521 l 174 347 l 0 347 l 0 174 l 347 174 l 347 0 l 521 0 l 521 174 l 694 174 l 694 347 z "},"5":{"ha":694,"x_min":0,"x_max":0,"o":"m 694 694 l 174 694 l 174 347 l 347 347 l 347 521 l 694 521 l 694 694 z m 347 174 l 0 174 l 0 0 l 521 0 l 521 347 l 347 347 l 347 174 z "},"6":{"ha":521,"x_min":0,"x_max":0,"o":"m 174 521 l 521 521 l 521 694 l 0 694 l 0 0 l 521 0 l 521 347 l 174 347 l 174 521 z "},"7":{"ha":521,"x_min":0,"x_max":0,"o":"m 521 694 l 0 694 l 0 521 l 347 521 l 347 347 l 521 347 l 521 694 z m 174 347 l 174 0 l 347 0 l 347 347 l 174 347 z "},"8":{"ha":694,"x_min":0,"x_max":0,"o":"m 174 694 l 174 521 l 347 521 l 347 694 l 174 694 z m 0 521 l 0 347 l 174 347 l 174 521 l 0 521 z m 347 521 l 347 347 l 521 347 l 521 521 l 347 521 z m 174 347 l 174 174 l 347 174 l 347 347 l 174 347 z m 0 174 l 0 0 l 174 0 l 174 174 l 0 174 z m 347 174 l 347 0 l 521 0 l 521 174 l 347 174 z m 174 0 l 174 -174 l 347 -174 l 347 0 l 174 0 z "},"9":{"ha":521,"x_min":0,"x_max":0,"o":"m 521 694 l 0 694 l 0 347 l 347 347 l 347 174 l 0 174 l 0 0 l 521 0 l 521 694 z "},"A":{"ha":521,"x_min":0,"x_max":0,"o":"m 347 1042 l 0 1042 l 0 868 l 347 868 l 347 1042 z m 694 174 l 521 174 l 521 868 l 347 868 l 347 521 l 174 521 l 174 347 l 347 347 l 347 174 l 174 174 l 174 0 l 694 0 l 694 174 z m 174 347 l 0 347 l 0 174 l 174 174 l 174 347 z "},"B":{"ha":521,"x_min":0,"x_max":0,"o":"m 347 694 l 174 694 l 174 868 l 347 868 l 347 1042 l 0 1042 l 0 0 l 347 0 l 347 174 l 174 174 l 174 521 l 347 521 l 347 694 z m 347 694 l 521 694 l 521 868 l 347 868 l 347 694 z m 347 521 l 347 174 l 521 174 l 521 521 l 347 521 z "},"C":{"ha":347,"x_min":0,"x_max":0,"o":"m 174 0 l 174 868 l 521 868 l 521 1042 l 0 1042 l 0 -174 l 521 -174 l 521 0 l 174 0 z "},"D":{"ha":521,"x_min":0,"x_max":0,"o":"m 174 347 l 174 694 l 347 694 l 347 868 l 174 868 l 174 1042 l 0 1042 l 0 0 l 174 0 l 174 174 l 347 174 l 347 347 l 174 347 z m 521 694 l 347 694 l 347 347 l 521 347 l 521 694 z "},"E":{"ha":694,"x_min":0,"x_max":0,"o":"m 694 694 l 174 694 l 174 868 l 347 868 l 347 1042 l 0 1042 l 0 0 l 521 0 l 521 174 l 174 174 l 174 521 l 694 521 l 694 694 z "},"F":{"ha":521,"x_min":0,"x_max":0,"o":"m 174 521 l 521 521 l 521 694 l 0 694 l 0 -174 l 174 -174 l 174 174 l 521 174 l 521 347 l 174 347 l 174 521 z "},"G":{"ha":521,"x_min":0,"x_max":0,"o":"m 347 868 l 347 1042 l 174 1042 l 174 868 l 347 868 z m 174 521 l 174 868 l 0 868 l 0 521 l 174 521 z m 521 694 l 347 694 l 347 521 l 521 521 l 521 694 z m 174 521 l 174 347 l 347 347 l 347 521 l 174 521 z "},"H":{"ha":1042,"x_min":0,"x_max":0,"o":"m 1042 521 l 868 521 l 868 1042 l 694 1042 l 694 521 l 347 521 l 347 1042 l 174 1042 l 174 521 l 0 521 l 0 347 l 174 347 l 174 -174 l 347 -174 l 347 347 l 694 347 l 694 -174 l 868 -174 l 868 347 l 1042 347 l 1042 521 z "},"I":{"ha":521,"x_min":0,"x_max":0,"o":"m 347 0 l 347 868 l 521 868 l 521 1042 l 0 1042 l 0 868 l 174 868 l 174 0 l 0 0 l 0 -174 l 521 -174 l 521 0 l 347 0 z "},"J":{"ha":694,"x_min":0,"x_max":0,"o":"m 694 1042 l 347 1042 l 347 868 l 521 868 l 521 0 l 0 0 l 0 -174 l 694 -174 l 694 1042 z "},"K":{"ha":868,"x_min":0,"x_max":0,"o":"m 694 521 l 347 521 l 347 1042 l 174 1042 l 174 0 l 347 0 l 347 347 l 521 347 l 521 0 l 694 0 l 694 521 z m 868 1042 l 694 1042 l 694 521 l 868 521 l 868 1042 z "},"L":{"ha":694,"x_min":0,"x_max":0,"o":"m 694 521 l 347 521 l 347 1042 l 0 1042 l 0 868 l 174 868 l 174 347 l 694 347 l 694 521 z "},"M":{"ha":694,"x_min":0,"x_max":0,"o":"m 347 694 l 174 694 l 174 1042 l 0 1042 l 0 0 l 174 0 l 174 521 l 347 521 l 347 694 z m 868 1042 l 694 1042 l 694 694 l 521 694 l 521 521 l 694 521 l 694 0 l 868 0 l 868 1042 z m 347 521 l 347 347 l 521 347 l 521 521 l 347 521 z "},"N":{"ha":694,"x_min":0,"x_max":0,"o":"m 347 694 l 174 694 l 174 868 l 0 868 l 0 0 l 174 0 l 174 521 l 347 521 l 347 694 z m 694 868 l 521 868 l 521 521 l 347 521 l 347 347 l 521 347 l 521 0 l 694 0 l 694 868 z "},"O":{"ha":521,"x_min":0,"x_max":0,"o":"m 347 868 l 347 1042 l 174 1042 l 174 868 l 347 868 z m 174 174 l 174 868 l 0 868 l 0 174 l 174 174 z m 521 868 l 347 868 l 347 174 l 521 174 l 521 868 z m 174 174 l 174 0 l 347 0 l 347 174 l 174 174 z "},"P":{"ha":521,"x_min":0,"x_max":0,"o":"m 521 1042 l 0 1042 l 0 0 l 174 0 l 174 347 l 521 347 l 521 1042 z m 347 868 l 347 521 l 174 521 l 174 868 l 347 868 z "},"Q":{"ha":868,"x_min":0,"x_max":0,"o":"m 174 521 l 521 521 l 521 694 l 174 694 l 174 521 z m 174 0 l 174 521 l 0 521 l 0 0 l 174 0 z m 868 0 l 694 0 l 694 521 l 521 521 l 521 0 l 174 0 l 174 -174 l 868 -174 l 868 0 z "},"R":{"ha":521,"x_min":0,"x_max":0,"o":"m 694 1042 l 0 1042 l 0 174 l 174 174 l 174 521 l 521 521 l 521 694 l 174 694 l 174 868 l 521 868 l 521 694 l 694 694 l 694 1042 z m 521 521 l 521 -174 l 694 -174 l 694 521 l 521 521 z "},"S":{"ha":521,"x_min":0,"x_max":0,"o":"m 174 694 l 521 694 l 521 868 l 174 868 l 174 694 z m 174 694 l 0 694 l 0 521 l 174 521 l 174 694 z m 174 347 l 347 347 l 347 521 l 174 521 l 174 347 z m 347 174 l 521 174 l 521 347 l 347 347 l 347 174 z m 347 174 l 0 174 l 0 0 l 347 0 l 347 174 z "},"T":{"ha":868,"x_min":0,"x_max":0,"o":"m 868 694 l 0 694 l 0 521 l 347 521 l 347 -174 l 521 -174 l 521 521 l 868 521 l 868 694 z "},"U":{"ha":694,"x_min":0,"x_max":0,"o":"m 694 868 l 521 868 l 521 0 l 174 0 l 174 868 l 0 868 l 0 -174 l 694 -174 l 694 868 z "},"V":{"ha":694,"x_min":0,"x_max":0,"o":"m 174 174 l 174 1042 l 0 1042 l 0 174 l 174 174 z m 694 1042 l 347 1042 l 347 174 l 521 174 l 521 868 l 694 868 l 694 1042 z m 174 174 l 174 -174 l 347 -174 l 347 174 l 174 174 z "},"W":{"ha":1042,"x_min":0,"x_max":0,"o":"m 347 0 l 347 1042 l 174 1042 l 174 0 l 347 0 z m 694 0 l 694 1042 l 521 1042 l 521 0 l 347 0 l 347 -174 l 868 -174 l 868 0 l 694 0 z m 1042 1042 l 868 1042 l 868 0 l 1042 0 l 1042 1042 z "},"X":{"ha":868,"x_min":0,"x_max":0,"o":"m 868 521 l 521 521 l 521 868 l 347 868 l 347 521 l 0 521 l 0 347 l 347 347 l 347 0 l 521 0 l 521 347 l 868 347 l 868 521 z "},"Y":{"ha":694,"x_min":0,"x_max":0,"o":"m 174 521 l 174 1042 l 0 1042 l 0 521 l 174 521 z m 694 1042 l 521 1042 l 521 521 l 174 521 l 174 347 l 521 347 l 521 -174 l 694 -174 l 694 1042 z "},"Z":{"ha":694,"x_min":0,"x_max":0,"o":"m 694 868 l 0 868 l 0 694 l 521 694 l 521 521 l 694 521 l 694 868 z m 521 521 l 174 521 l 174 347 l 521 347 l 521 521 z m 0 347 l 0 0 l 694 0 l 694 174 l 174 174 l 174 347 l 0 347 z "},"a":{"ha":521,"x_min":0,"x_max":0,"o":"m 347 1042 l -174 1042 l -174 868 l 347 868 l 347 1042 z m 521 868 l 347 868 l 347 347 l 174 347 l 174 174 l 347 174 l 347 0 l 174 0 l 174 174 l 0 174 l 0 -174 l 521 -174 l 521 868 z "},"b":{"ha":694,"x_min":0,"x_max":0,"o":"m 694 694 l 521 694 l 521 868 l 347 868 l 347 694 l 174 694 l 174 868 l 347 868 l 347 1042 l 0 1042 l 0 0 l 694 0 l 694 694 z m 521 521 l 521 174 l 174 174 l 174 521 l 521 521 z "},"c":{"ha":694,"x_min":0,"x_max":0,"o":"m 694 174 l 174 174 l 174 868 l 347 868 l 347 1042 l 0 1042 l 0 0 l 694 0 l 694 174 z "},"d":{"ha":521,"x_min":0,"x_max":0,"o":"m 174 347 l 174 694 l 347 694 l 347 1042 l 0 1042 l 0 0 l 347 0 l 347 347 l 174 347 z m 521 694 l 347 694 l 347 347 l 521 347 l 521 694 z "},"e":{"ha":694,"x_min":0,"x_max":0,"o":"m 347 868 l 347 1042 l 174 1042 l 174 868 l 347 868 z m 694 694 l 521 694 l 521 521 l 174 521 l 174 868 l 0 868 l 0 174 l 174 174 l 174 347 l 694 347 l 694 694 z m 347 694 l 521 694 l 521 868 l 347 868 l 347 694 z m 174 0 l 347 0 l 347 174 l 174 174 l 174 0 z "},"f":{"ha":694,"x_min":0,"x_max":0,"o":"m 347 868 l 694 868 l 694 1042 l 347 1042 l 347 868 z m 347 521 l 347 868 l 174 868 l 174 521 l -174 521 l -174 347 l 174 347 l 174 -174 l 347 -174 l 347 347 l 694 347 l 694 521 l 347 521 z "},"g":{"ha":521,"x_min":0,"x_max":0,"o":"m 347 868 l 347 1042 l 174 1042 l 174 868 l 347 868 z m 174 521 l 174 868 l 0 868 l 0 521 l 174 521 z m 521 868 l 347 868 l 347 521 l 174 521 l 174 347 l 347 347 l 347 0 l 521 0 l 521 868 z m 347 0 l 0 0 l 0 -174 l 347 -174 l 347 0 z "},"h":{"ha":521,"x_min":0,"x_max":0,"o":"m 347 694 l 174 694 l 174 1042 l 0 1042 l 0 -174 l 174 -174 l 174 521 l 347 521 l 347 694 z m 521 521 l 347 521 l 347 -174 l 521 -174 l 521 521 z "},"i":{"ha":521,"x_min":0,"x_max":0,"o":"m 347 174 l 347 868 l 521 868 l 521 1042 l 0 1042 l 0 868 l 174 868 l 174 174 l 0 174 l 0 0 l 521 0 l 521 174 l 347 174 z "},"j":{"ha":694,"x_min":0,"x_max":0,"o":"m 694 1042 l 174 1042 l 174 868 l 521 868 l 521 174 l 694 174 l 694 1042 z m 521 174 l 0 174 l 0 0 l 521 0 l 521 174 z "},"k":{"ha":694,"x_min":0,"x_max":0,"o":"m 694 521 l 521 521 l 521 1042 l 347 1042 l 347 521 l 174 521 l 174 1042 l 0 1042 l 0 0 l 174 0 l 174 347 l 521 347 l 521 0 l 694 0 l 694 521 z "},"l":{"ha":521,"x_min":0,"x_max":0,"o":"m 521 694 l 174 694 l 174 1042 l 0 1042 l 0 521 l 521 521 l 521 694 z "},"m":{"ha":868,"x_min":0,"x_max":0,"o":"m 347 694 l 174 694 l 174 868 l 0 868 l 0 -174 l 174 -174 l 174 521 l 347 521 l 347 694 z m 868 868 l 694 868 l 694 694 l 521 694 l 521 521 l 694 521 l 694 -174 l 868 -174 l 868 868 z m 347 521 l 347 347 l 521 347 l 521 521 l 347 521 z "},"n":{"ha":694,"x_min":0,"x_max":0,"o":"m 694 521 l 0 521 l 0 -174 l 174 -174 l 174 347 l 521 347 l 521 -174 l 694 -174 l 694 521 z "},"o":{"ha":694,"x_min":0,"x_max":0,"o":"m 174 521 l 521 521 l 521 694 l 174 694 l 174 521 z m 174 174 l 174 521 l 0 521 l 0 174 l 174 174 z m 694 521 l 521 521 l 521 174 l 694 174 l 694 521 z m 521 174 l 174 174 l 174 0 l 521 0 l 521 174 z "},"p":{"ha":521,"x_min":0,"x_max":0,"o":"m 174 521 l 174 868 l 347 868 l 347 1042 l 0 1042 l 0 -174 l 174 -174 l 174 347 l 347 347 l 347 521 l 174 521 z m 521 868 l 347 868 l 347 521 l 521 521 l 521 868 z "},"q":{"ha":521,"x_min":0,"x_max":0,"o":"m 347 868 l 347 1042 l 174 1042 l 174 868 l 347 868 z m 174 174 l 174 868 l 0 868 l 0 174 l 174 174 z m 521 868 l 347 868 l 347 174 l 521 174 l 521 868 z m 174 174 l 174 -174 l 347 -174 l 347 174 l 174 174 z "},"r":{"ha":521,"x_min":0,"x_max":0,"o":"m 521 694 l 0 694 l 0 -174 l 174 -174 l 174 521 l 521 521 l 521 694 z "},"s":{"ha":521,"x_min":0,"x_max":0,"o":"m 174 868 l 521 868 l 521 1042 l 174 1042 l 174 868 z m 174 521 l 174 868 l 0 868 l 0 521 l 174 521 z m 174 347 l 347 347 l 347 521 l 174 521 l 174 347 z m 347 347 l 347 0 l 0 0 l 0 -174 l 521 -174 l 521 347 l 347 347 z "},"t":{"ha":521,"x_min":0,"x_max":0,"o":"m 521 694 l 174 694 l 174 1042 l 0 1042 l 0 -174 l 174 -174 l 174 521 l 521 521 l 521 694 z "},"u":{"ha":694,"x_min":0,"x_max":0,"o":"m 174 0 l 174 521 l 0 521 l 0 0 l 174 0 z m 694 521 l 521 521 l 521 0 l 694 0 l 694 521 z m 521 0 l 174 0 l 174 -174 l 521 -174 l 521 0 z "},"v":{"ha":694,"x_min":0,"x_max":0,"o":"m 174 0 l 174 1042 l -174 1042 l -174 868 l 0 868 l 0 0 l 174 0 z m 694 1042 l 347 1042 l 347 0 l 521 0 l 521 868 l 694 868 l 694 1042 z m 174 0 l 174 -174 l 347 -174 l 347 0 l 174 0 z "},"w":{"ha":868,"x_min":0,"x_max":0,"o":"m 868 1042 l 694 1042 l 694 174 l 521 174 l 521 1042 l 347 1042 l 347 174 l 174 174 l 174 1042 l 0 1042 l 0 0 l 868 0 l 868 1042 z "},"x":{"ha":868,"x_min":0,"x_max":0,"o":"m 868 521 l 521 521 l 521 868 l 347 868 l 347 521 l 0 521 l 0 347 l 347 347 l 347 0 l 521 0 l 521 347 l 868 347 l 868 521 z "},"y":{"ha":868,"x_min":0,"x_max":0,"o":"m 868 1042 l 694 1042 l 694 521 l 174 521 l 174 1042 l 0 1042 l 0 347 l 347 347 l 347 -174 l 521 -174 l 521 347 l 868 347 l 868 1042 z "},"z":{"ha":694,"x_min":0,"x_max":0,"o":"m 521 521 l 521 1042 l 0 1042 l 0 868 l 347 868 l 347 521 l 521 521 z m 347 347 l 347 521 l 174 521 l 174 347 l 347 347 z m 694 0 l 174 0 l 174 347 l 0 347 l 0 -174 l 694 -174 l 694 0 z "},",":{"ha":694,"x_min":0,"x_max":0,"o":"m 521 347 l 174 347 l 174 0 l 347 0 l 347 -174 l 521 -174 l 521 347 z "},"!":{"ha":347,"x_min":0,"x_max":0,"o":"m 347 1042 l 0 1042 l 0 521 l 347 521 l 347 1042 z m 347 347 l 0 347 l 0 0 l 347 0 l 347 347 z "},".":{"ha":868,"x_min":0,"x_max":0,"o":"m 521 347 l 174 347 l 174 0 l 521 0 l 521 347 z "},"?":{"ha":347,"x_min":0,"x_max":0,"o":"m 347 1042 l 0 1042 l 0 868 l 174 868 l 174 694 l 347 694 l 347 1042 z m 0 694 l 0 521 l 174 521 l 174 694 l 0 694 z m 347 347 l 0 347 l 0 0 l 347 0 l 347 347 z "},"{":{"ha":521,"x_min":0,"x_max":0,"o":"m 521 868 l 521 1042 l 347 1042 l 347 868 l 521 868 z m 347 0 l 347 868 l 174 868 l 174 521 l 0 521 l 0 347 l 174 347 l 174 0 l 347 0 z m 347 -174 l 521 -174 l 521 0 l 347 0 l 347 -174 z "},"}":{"ha":521,"x_min":0,"x_max":0,"o":"m 174 1042 l 0 1042 l 0 868 l 174 868 l 174 1042 z m 521 521 l 347 521 l 347 868 l 174 868 l 174 0 l 347 0 l 347 347 l 521 347 l 521 521 z m 0 0 l 0 -174 l 174 -174 l 174 0 l 0 0 z "},"[":{"ha":521,"x_min":0,"x_max":0,"o":"m 174 174 l 174 868 l 521 868 l 521 1042 l 0 1042 l 0 0 l 521 0 l 521 174 l 174 174 z "},"]":{"ha":521,"x_min":0,"x_max":0,"o":"m 521 1042 l 0 1042 l 0 868 l 347 868 l 347 174 l 0 174 l 0 0 l 521 0 l 521 1042 z "},"(":{"ha":521,"x_min":0,"x_max":0,"o":"m 521 868 l 521 1042 l 347 1042 l 347 868 l 521 868 z m 347 174 l 347 868 l 174 868 l 174 694 l 0 694 l 0 347 l 174 347 l 174 174 l 347 174 z m 347 0 l 521 0 l 521 174 l 347 174 l 347 0 z "},")":{"ha":521,"x_min":0,"x_max":0,"o":"m 174 1042 l 0 1042 l 0 868 l 174 868 l 174 1042 z m 521 694 l 347 694 l 347 868 l 174 868 l 174 174 l 347 174 l 347 347 l 521 347 l 521 694 z m 0 174 l 0 0 l 174 0 l 174 174 l 0 174 z "},"-":{"ha":694,"x_min":0,"x_max":0,"o":"m 694 694 l 0 694 l 0 521 l 694 521 l 694 694 z "}," ":{"ha":694,"x_min":0,"x_max":0,"o":"m 0 1042 l 0 868 l 174 868 l 174 1042 l 0 1042 z m 347 1042 l 347 868 l 521 868 l 521 1042 l 347 1042 z m 174 868 l 174 694 l 347 694 l 347 868 l 174 868 z m 521 868 l 521 694 l 694 694 l 694 868 l 521 868 z m 0 694 l 0 521 l 174 521 l 174 694 l 0 694 z m 347 694 l 347 521 l 521 521 l 521 694 l 347 694 z m 174 521 l 174 347 l 347 347 l 347 521 l 174 521 z m 521 521 l 521 347 l 694 347 l 694 521 l 521 521 z m 0 347 l 0 174 l 174 174 l 174 347 l 0 347 z m 347 347 l 347 174 l 521 174 l 521 347 l 347 347 z m 174 174 l 174 0 l 347 0 l 347 174 l 174 174 z m 521 174 l 521 0 l 694 0 l 694 174 l 521 174 z m 0 0 l 0 -174 l 174 -174 l 174 0 l 0 0 z m 347 0 l 347 -174 l 521 -174 l 521 0 l 347 0 z "},"@":{"ha":694,"x_min":0,"x_max":0,"o":"m 694 1042 l 174 1042 l 174 868 l 694 868 l 694 1042 z m 0 868 l 0 694 l 174 694 l 174 868 l 0 868 z m 868 868 l 694 868 l 694 347 l 868 347 l 868 868 z m 521 347 l 521 521 l 174 521 l 174 174 l 694 174 l 694 347 l 521 347 z "}}}
